<mxfile host="app.diagrams.net" modified="2020-09-21T10:43:47.248Z" agent="5.0 (Windows NT 10.0; Win64; x64) AppleWebKit/537.36 (KHTML, like Gecko) Chrome/85.0.4183.102 Safari/537.36" etag="IBEy5EnMmGLCvJOo7kZh" version="13.7.3" type="github">
  <diagram id="W1Izrvb6sqiLPaAGX85R" name="第 1 页">
    <mxGraphModel dx="1446" dy="607" grid="1" gridSize="10" guides="1" tooltips="1" connect="1" arrows="1" fold="1" page="1" pageScale="1" pageWidth="827" pageHeight="1169" math="0" shadow="0">
      <root>
        <mxCell id="0" />
        <mxCell id="1" parent="0" />
        <mxCell id="cqWN93-SggEuXFf2DwN9-6" style="edgeStyle=orthogonalEdgeStyle;rounded=0;orthogonalLoop=1;jettySize=auto;html=1;" edge="1" parent="1" source="cqWN93-SggEuXFf2DwN9-1" target="cqWN93-SggEuXFf2DwN9-5">
          <mxGeometry relative="1" as="geometry" />
        </mxCell>
        <mxCell id="cqWN93-SggEuXFf2DwN9-44" style="edgeStyle=orthogonalEdgeStyle;rounded=0;orthogonalLoop=1;jettySize=auto;html=1;exitX=0.5;exitY=0;exitDx=0;exitDy=0;entryX=0.5;entryY=1;entryDx=0;entryDy=0;" edge="1" parent="1" source="cqWN93-SggEuXFf2DwN9-1" target="cqWN93-SggEuXFf2DwN9-40">
          <mxGeometry relative="1" as="geometry" />
        </mxCell>
        <mxCell id="cqWN93-SggEuXFf2DwN9-1" value="Producer&lt;br&gt;生产者" style="rounded=0;whiteSpace=wrap;html=1;" vertex="1" parent="1">
          <mxGeometry x="322.5" y="180" width="120" height="60" as="geometry" />
        </mxCell>
        <mxCell id="cqWN93-SggEuXFf2DwN9-2" value="&lt;font style=&quot;font-size: 18px&quot;&gt;RocketMq&lt;/font&gt;" style="text;html=1;align=center;verticalAlign=middle;resizable=0;points=[];autosize=1;" vertex="1" parent="1">
          <mxGeometry x="10" y="20" width="100" height="20" as="geometry" />
        </mxCell>
        <mxCell id="cqWN93-SggEuXFf2DwN9-36" style="edgeStyle=orthogonalEdgeStyle;rounded=0;orthogonalLoop=1;jettySize=auto;html=1;exitX=0.5;exitY=1;exitDx=0;exitDy=0;entryX=0.5;entryY=1;entryDx=0;entryDy=0;" edge="1" parent="1" source="cqWN93-SggEuXFf2DwN9-5" target="cqWN93-SggEuXFf2DwN9-5">
          <mxGeometry relative="1" as="geometry" />
        </mxCell>
        <mxCell id="cqWN93-SggEuXFf2DwN9-38" style="edgeStyle=orthogonalEdgeStyle;rounded=0;orthogonalLoop=1;jettySize=auto;html=1;" edge="1" parent="1" source="cqWN93-SggEuXFf2DwN9-5" target="cqWN93-SggEuXFf2DwN9-20">
          <mxGeometry relative="1" as="geometry" />
        </mxCell>
        <mxCell id="cqWN93-SggEuXFf2DwN9-5" value="Broker server&lt;br&gt;消息中转服务器&lt;br&gt;&lt;br&gt;负责消息存储、转发" style="whiteSpace=wrap;html=1;" vertex="1" parent="1">
          <mxGeometry x="320" y="450" width="125" height="80" as="geometry" />
        </mxCell>
        <mxCell id="cqWN93-SggEuXFf2DwN9-12" style="edgeStyle=orthogonalEdgeStyle;rounded=0;orthogonalLoop=1;jettySize=auto;html=1;exitX=1;exitY=0.5;exitDx=0;exitDy=0;entryX=0;entryY=0.5;entryDx=0;entryDy=0;" edge="1" parent="1" target="cqWN93-SggEuXFf2DwN9-13">
          <mxGeometry relative="1" as="geometry">
            <mxPoint x="550" y="360" as="targetPoint" />
            <mxPoint x="480" y="340" as="sourcePoint" />
          </mxGeometry>
        </mxCell>
        <mxCell id="cqWN93-SggEuXFf2DwN9-13" value="Topic主题&lt;br&gt;&lt;br&gt;每个消息都有唯一的主题，是消息订阅的最小单位" style="whiteSpace=wrap;html=1;" vertex="1" parent="1">
          <mxGeometry x="580" y="300" width="120" height="80" as="geometry" />
        </mxCell>
        <mxCell id="cqWN93-SggEuXFf2DwN9-27" style="edgeStyle=orthogonalEdgeStyle;rounded=0;orthogonalLoop=1;jettySize=auto;html=1;exitX=0.5;exitY=1;exitDx=0;exitDy=0;" edge="1" parent="1" source="cqWN93-SggEuXFf2DwN9-20" target="cqWN93-SggEuXFf2DwN9-25">
          <mxGeometry relative="1" as="geometry" />
        </mxCell>
        <mxCell id="cqWN93-SggEuXFf2DwN9-37" style="edgeStyle=orthogonalEdgeStyle;rounded=0;orthogonalLoop=1;jettySize=auto;html=1;" edge="1" parent="1" source="cqWN93-SggEuXFf2DwN9-20" target="cqWN93-SggEuXFf2DwN9-5">
          <mxGeometry relative="1" as="geometry" />
        </mxCell>
        <mxCell id="cqWN93-SggEuXFf2DwN9-39" value="推送数据或拉取数据" style="edgeLabel;html=1;align=center;verticalAlign=middle;resizable=0;points=[];" vertex="1" connectable="0" parent="cqWN93-SggEuXFf2DwN9-37">
          <mxGeometry x="0.2143" y="1" relative="1" as="geometry">
            <mxPoint x="1" as="offset" />
          </mxGeometry>
        </mxCell>
        <mxCell id="cqWN93-SggEuXFf2DwN9-20" value="Consumer&lt;br&gt;消费者" style="whiteSpace=wrap;html=1;" vertex="1" parent="1">
          <mxGeometry x="320" y="670" width="125" height="80" as="geometry" />
        </mxCell>
        <mxCell id="cqWN93-SggEuXFf2DwN9-59" style="edgeStyle=orthogonalEdgeStyle;rounded=0;orthogonalLoop=1;jettySize=auto;html=1;exitX=1;exitY=0.75;exitDx=0;exitDy=0;entryX=0;entryY=0.573;entryDx=0;entryDy=0;entryPerimeter=0;" edge="1" parent="1" source="cqWN93-SggEuXFf2DwN9-25" target="cqWN93-SggEuXFf2DwN9-58">
          <mxGeometry relative="1" as="geometry" />
        </mxCell>
        <mxCell id="cqWN93-SggEuXFf2DwN9-60" style="edgeStyle=orthogonalEdgeStyle;rounded=0;orthogonalLoop=1;jettySize=auto;html=1;exitX=1;exitY=0.25;exitDx=0;exitDy=0;" edge="1" parent="1" source="cqWN93-SggEuXFf2DwN9-25" target="cqWN93-SggEuXFf2DwN9-55">
          <mxGeometry relative="1" as="geometry" />
        </mxCell>
        <mxCell id="cqWN93-SggEuXFf2DwN9-25" value="Consumer Group&lt;br&gt;消费者组&lt;br&gt;&lt;br&gt;同一类consumer的集合，通常是消费同类消息，且消费逻辑一致。&lt;span style=&quot;color: rgb(36 , 41 , 46) ; font-family: , &amp;#34;blinkmacsystemfont&amp;#34; , &amp;#34;segoe ui&amp;#34; , &amp;#34;helvetica&amp;#34; , &amp;#34;arial&amp;#34; , sans-serif , &amp;#34;apple color emoji&amp;#34; , &amp;#34;segoe ui emoji&amp;#34; ; background-color: rgb(255 , 255 , 255)&quot;&gt;&lt;font style=&quot;font-size: 12px&quot;&gt;支持两种消息模式：集群消费（Clustering）和广播消费（Broadcasting）&lt;/font&gt;&lt;/span&gt;" style="whiteSpace=wrap;html=1;" vertex="1" parent="1">
          <mxGeometry x="323.75" y="830" width="117.5" height="200" as="geometry" />
        </mxCell>
        <mxCell id="cqWN93-SggEuXFf2DwN9-40" value="Producer Group&lt;br&gt;生产者组" style="rounded=0;whiteSpace=wrap;html=1;" vertex="1" parent="1">
          <mxGeometry x="322.5" y="20" width="120" height="60" as="geometry" />
        </mxCell>
        <mxCell id="cqWN93-SggEuXFf2DwN9-42" value="&lt;span&gt;Message&lt;/span&gt;&lt;br&gt;&lt;span&gt;&amp;nbsp;消息体&lt;/span&gt;&lt;br&gt;&lt;br&gt;&lt;span&gt;生产、消费的最小单元&lt;/span&gt;" style="ellipse;whiteSpace=wrap;html=1;" vertex="1" parent="1">
          <mxGeometry x="400" y="300" width="120" height="80" as="geometry" />
        </mxCell>
        <mxCell id="cqWN93-SggEuXFf2DwN9-55" value="&lt;span style=&quot;color: rgb(36 , 41 , 46) ; background-color: rgb(255 , 255 , 255)&quot;&gt;集群消费（Clustering）&lt;br&gt;&lt;/span&gt;&lt;span style=&quot;color: rgb(36 , 41 , 46) ; font-family: , &amp;#34;blinkmacsystemfont&amp;#34; , &amp;#34;segoe ui&amp;#34; , &amp;#34;helvetica&amp;#34; , &amp;#34;arial&amp;#34; , sans-serif , &amp;#34;apple color emoji&amp;#34; , &amp;#34;segoe ui emoji&amp;#34; ; background-color: rgb(255 , 255 , 255)&quot;&gt;&lt;font style=&quot;font-size: 12px&quot;&gt;&lt;br&gt;相同Consumer Group的每个Consumer实例平均分摊消息&lt;/font&gt;&lt;/span&gt;" style="whiteSpace=wrap;html=1;" vertex="1" parent="1">
          <mxGeometry x="660" y="770" width="120" height="110" as="geometry" />
        </mxCell>
        <mxCell id="cqWN93-SggEuXFf2DwN9-58" value="&lt;span style=&quot;color: rgb(36 , 41 , 46) ; background-color: rgb(255 , 255 , 255)&quot;&gt;广播消费（Broadcasting）&lt;br&gt;&lt;br&gt;&lt;/span&gt;&lt;span style=&quot;color: rgb(36 , 41 , 46) ; font-family: , &amp;#34;blinkmacsystemfont&amp;#34; , &amp;#34;segoe ui&amp;#34; , &amp;#34;helvetica&amp;#34; , &amp;#34;arial&amp;#34; , sans-serif , &amp;#34;apple color emoji&amp;#34; , &amp;#34;segoe ui emoji&amp;#34; ; background-color: rgb(255 , 255 , 255)&quot;&gt;&lt;font style=&quot;font-size: 12px&quot;&gt;相同Consumer Group的每个Consumer实例都接收全量的消息&lt;/font&gt;&lt;/span&gt;&lt;span style=&quot;color: rgb(36 , 41 , 46) ; background-color: rgb(255 , 255 , 255)&quot;&gt;&lt;br&gt;&lt;/span&gt;" style="whiteSpace=wrap;html=1;" vertex="1" parent="1">
          <mxGeometry x="660" y="960" width="120" height="110" as="geometry" />
        </mxCell>
      </root>
    </mxGraphModel>
  </diagram>
</mxfile>
